<svg xmlns="http://www.w3.org/2000/svg" width="16" height="16" class="ga28-a0 ga28-a1" style="color: rgb(0, 26, 52);"><path fill="currentColor" d="M8 9a2 2 0 1 0 0-4 2 2 0 0 0 0 4"></path><path fill="currentColor" d="M8 0a7 7 0 0 0-7 7c0 2.91 1.713 5.148 3.285 6.596a16 16 0 0 0 2.945 2.13c.155.085.32.172.406.205a1 1 0 0 0 .728 0c.086-.033.25-.12.406-.206a16 16 0 0 0 2.945-2.13C13.287 12.149 15 9.91 15 7a7 7 0 0 0-7-7M3 7a5 5 0 0 1 10 0c0 2.09-1.237 3.833-2.64 5.125A14 14 0 0 1 8 13.863a14 14 0 0 1-2.36-1.738C4.237 10.833 3 9.09 3 7"></path></svg>